<svg width="57" height="57" viewBox="0 0 57 57" fill="none" xmlns="http://www.w3.org/2000/svg">
<circle cx="28.5" cy="28.2998" r="27.5" stroke="#2260FF"/>
<path fill-rule="evenodd" clip-rule="evenodd" d="M42.2384 36.0143V18.8714C42.2384 17.9621 41.8772 17.0901 41.2342 16.4471C40.5912 15.8041 39.7192 15.4429 38.8098 15.4429H25.0956C24.1862 15.4429 23.3142 15.8041 22.6712 16.4471C22.0282 17.0901 21.667 17.9621 21.667 18.8714V36.0143C21.667 36.9236 22.0282 37.7957 22.6712 38.4387C23.3142 39.0816 24.1862 39.4429 25.0956 39.4429H38.8098C39.7192 39.4429 40.5912 39.0816 41.2342 38.4387C41.8772 37.7957 42.2384 36.9236 42.2384 36.0143Z" stroke="#2260FF" stroke-linecap="round" stroke-linejoin="round"/>
<path d="M21.3332 19.6172L17.8978 20.8686C17.0436 21.1797 16.3479 21.8174 15.9637 22.6413C15.5796 23.4652 15.5384 24.408 15.8492 25.2623L21.712 41.3715C21.8661 41.7946 22.102 42.1833 22.4063 42.5153C22.7105 42.8472 23.0772 43.116 23.4854 43.3063C23.8936 43.4965 24.3352 43.6045 24.7851 43.624C25.235 43.6435 25.6844 43.5742 26.1075 43.42L35.6526 39.652M26.8103 24.0143H35.3818M26.8103 27.4429H37.096M26.8103 30.8715H31.9532" stroke="#2260FF" stroke-linecap="round" stroke-linejoin="round"/>
</svg>
