<svg width="21" height="21" viewBox="0 0 21 21" fill="none" xmlns="http://www.w3.org/2000/svg">
<path fill-rule="evenodd" clip-rule="evenodd" d="M18.5146 15V5C18.5146 4.46957 18.3039 3.96086 17.9289 3.58579C17.5538 3.21071 17.0451 3 16.5146 3H8.51465C7.98422 3 7.47551 3.21071 7.10043 3.58579C6.72536 3.96086 6.51465 4.46957 6.51465 5V15C6.51465 15.5304 6.72536 16.0391 7.10043 16.4142C7.47551 16.7893 7.98422 17 8.51465 17H16.5146C17.0451 17 17.5538 16.7893 17.9289 16.4142C18.3039 16.0391 18.5146 15.5304 18.5146 15Z" stroke="white" stroke-linecap="round" stroke-linejoin="round"/>
<path d="M6.31952 5.43506L4.31552 6.16506C3.81724 6.34655 3.41144 6.7185 3.18735 7.19913C2.96325 7.67976 2.93922 8.22971 3.12052 8.72806L6.54052 18.1251C6.63038 18.3719 6.76799 18.5986 6.94548 18.7923C7.12298 18.9859 7.33688 19.1427 7.57498 19.2537C7.81308 19.3647 8.07071 19.4276 8.33315 19.439C8.59559 19.4504 8.8577 19.41 9.10452 19.3201L14.6725 17.1221M9.51452 8.00006H14.5145M9.51452 10.0001H15.5145M9.51452 12.0001H12.5145" stroke="white" stroke-linecap="round" stroke-linejoin="round"/>
</svg>
