<svg width="57" height="57" viewBox="0 0 57 57" fill="none" xmlns="http://www.w3.org/2000/svg">
<circle cx="28.5" cy="28.2998" r="27.5" stroke="#2260FF"/>
<path d="M28.5 33.4427H33.6429M19.9286 18.0142H37.0714C37.9807 18.0142 38.8528 18.3754 39.4958 19.0184C40.1388 19.6613 40.5 20.5334 40.5 21.4427V35.157C40.5 36.0663 40.1388 36.9384 39.4958 37.5814C38.8528 38.2244 37.9807 38.5856 37.0714 38.5856H19.9286C19.0193 38.5856 18.1472 38.2244 17.5042 37.5814C16.8612 36.9384 16.5 36.0663 16.5 35.157V21.4427C16.5 20.5334 16.8612 19.6613 17.5042 19.0184C18.1472 18.3754 19.0193 18.0142 19.9286 18.0142Z" stroke="#2260FF" stroke-linecap="round" stroke-linejoin="round"/>
<path d="M21.6426 31.7282L25.0711 28.2997L21.6426 24.8711" stroke="#2260FF" stroke-linecap="round" stroke-linejoin="round"/>
</svg>
